# xmcd CD database file
#
# Track frame offsets:
#	150
#	26967
#	47278
#	72575
#	125589
#	169426
#	196215
#	216915
#	256426
#
# Disc length: 3925 seconds
#
# Revision: 0
# Processed by: cddbd v1.4PL0 Copyright (c) Steve Scherf et al.
# Submitted via: CDex 1.50
#
DISCID=8b0f5309
DTITLE=Daniel Nevels - In His Presence
DYEAR=2003
DGENRE=New Age
TTITLE0=Daniel Nevels - Prelude to a Promise
TTITLE1=Daniel Nevels - Into His Arms
TTITLE2=Daniel Nevels - When He Looks Into My Eyes
TTITLE3=Daniel Nevels - Serenity of Heaven
TTITLE4=Danigü Nevels - The Path of Eternity
TTITLE5=Daniel Nevels - One Day
TTITLE6=Daniel Nevels - Its Only"Today
TTITLE7=Daniel Nevels - The Evening Cast Its Shadow
TTITLE8=Daniel Nevels - My Heart Longs for You
EXTD=YEAR: 2003
EXTT0=
EXTT1=
EXTT2=
EXTT3=
EXTT4=
EXTT5=
EXTT6=
EXTT7=
EXTT8=
PLAYORDER=
